<svg width="42" height="42" viewBox="0 0 42 42" fill="none" xmlns="http://www.w3.org/2000/svg">
<path d="M21 41C32.0457 41 41 32.0457 41 21C41 9.9543 32.0457 1 21 1C9.9543 1 1 9.9543 1 21C1 32.0457 9.9543 41 21 41Z" fill="url(#paint0_radial_6_2)" stroke="black" stroke-width="0.2"/>
<path d="M21 41C32.0457 41 41 32.0457 41 21C41 9.9543 32.0457 1 21 1C9.9543 1 1 9.9543 1 21C1 32.0457 9.9543 41 21 41Z" fill="url(#paint1_radial_6_2)"/>
<path d="M15 18C16.3807 18 17.5 16.2091 17.5 14C17.5 11.7909 16.3807 10 15 10C13.6193 10 12.5 11.7909 12.5 14C12.5 16.2091 13.6193 18 15 18Z" fill="black"/>
<path d="M26 18C27.3807 18 28.5 16.2091 28.5 14C28.5 11.7909 27.3807 10 26 10C24.6193 10 23.5 11.7909 23.5 14C23.5 16.2091 24.6193 18 26 18Z" fill="black"/>
<path d="M31.6 23.7C31.8267 24.5801 32.3464 25.3567 33.0735 25.902C33.8005 26.4473 34.6916 26.7288 35.6 26.7" stroke="black" stroke-width="0.5" stroke-linecap="round"/>
<path d="M6 26.7684C6.90516 26.8499 7.81109 26.6207 8.5686 26.1186C9.32611 25.6164 9.89004 24.8713 10.1675 24.0059" stroke="black" stroke-width="0.5" stroke-linecap="round"/>
<path d="M9 26C10.1357 28.2036 11.8563 30.0519 13.973 31.3423C16.0898 32.6327 18.5209 33.3153 21 33.3153C23.4791 33.3153 25.9102 32.6327 28.027 31.3423C30.1437 30.0519 31.8643 28.2036 33 26C32.0129 28.3691 30.3466 30.393 28.2111 31.8167C26.0756 33.2403 23.5665 34 21 34C18.4335 34 15.9244 33.2403 13.7889 31.8167C11.6534 30.393 9.98712 28.3691 9 26Z" stroke="black" stroke-width="0.8"/>
<defs>
<radialGradient id="paint0_radial_6_2" cx="0" cy="0" r="1" gradientUnits="userSpaceOnUse" gradientTransform="translate(21 21) scale(20)">
<stop stop-color="#FFFF00"/>
<stop offset="0.8" stop-color="#FFFF00"/>
<stop offset="1" stop-color="#E8E800"/>
</radialGradient>
<radialGradient id="paint1_radial_6_2" cx="0" cy="0" r="1" gradientUnits="userSpaceOnUse" gradientTransform="translate(9 9) scale(20)">
<stop stop-color="white" stop-opacity="0.7"/>
<stop offset="1" stop-color="white" stop-opacity="0"/>
</radialGradient>
</defs>
</svg>
