<svg width="40" height="40" viewBox="0 0 40 40" fill="none" xmlns="http://www.w3.org/2000/svg"><path d="M0 20C0 8.95431 8.95431 0 20 0C31.0457 0 40 8.95431 40 20C40 31.0457 31.0457 40 20 40C8.95431 40 0 31.0457 0 20Z" fill="#323750"></path><path fill-rule="evenodd" clip-rule="evenodd" d="M20.75 8.75V9.5V12.5H19.25V9.5V8.75H20.75ZM20 16.25C17.9289 16.25 16.25 17.9289 16.25 20C16.25 22.0711 17.9289 23.75 20 23.75C22.0711 23.75 23.75 22.0711 23.75 20C23.75 17.9289 22.0711 16.25 20 16.25ZM14.75 20C14.75 17.1005 17.1005 14.75 20 14.75C22.8995 14.75 25.25 17.1005 25.25 20C25.25 22.8995 22.8995 25.25 20 25.25C17.1005 25.25 14.75 22.8995 14.75 20ZM20.75 27.5H19.25V30.5V31.25H20.75V30.5V27.5ZM8.75 19.25H9.5H12.5V20.75H9.5H8.75V19.25ZM27.5 19.25V20.75H30.5H31.25V19.25H30.5H27.5ZM28.4853 12.5754L27.955 13.1058L25.8337 15.2271L24.773 14.1664L26.8943 12.0451L27.4247 11.5148L28.4853 12.5754ZM15.227 25.8336L14.1664 24.773L12.0451 26.8943L11.5147 27.4246L12.5754 28.4853L13.1057 27.9549L15.227 25.8336ZM12.5753 11.5148L13.1057 12.0451L15.227 14.1664L14.1663 15.2271L12.045 13.1058L11.5147 12.5754L12.5753 11.5148ZM25.8336 24.773L24.773 25.8336L26.8943 27.9549L27.4246 28.4853L28.4853 27.4246L27.9549 26.8943L25.8336 24.773Z" fill="white" fill-opacity="0.89"></path></svg>