<svg width="42" height="42" viewBox="0 0 42 42" fill="none" xmlns="http://www.w3.org/2000/svg">
<path d="M21 41C32.0457 41 41 32.0457 41 21C41 9.9543 32.0457 1 21 1C9.9543 1 1 9.9543 1 21C1 32.0457 9.9543 41 21 41Z" fill="url(#paint0_radial_6_2)" stroke="black" stroke-width="0.2"/>
<path d="M21 41C32.0457 41 41 32.0457 41 21C41 9.9543 32.0457 1 21 1C9.9543 1 1 9.9543 1 21C1 32.0457 9.9543 41 21 41Z" fill="url(#paint1_radial_6_2)"/>
<path d="M15 18C16.3807 18 17.5 16.2091 17.5 14C17.5 11.7909 16.3807 10 15 10C13.6193 10 12.5 11.7909 12.5 14C12.5 16.2091 13.6193 18 15 18Z" fill="black"/>
<path d="M26 18C27.3807 18 28.5 16.2091 28.5 14C28.5 11.7909 27.3807 10 26 10C24.6193 10 23.5 11.7909 23.5 14C23.5 16.2091 24.6193 18 26 18Z" fill="black"/>
<path d="M12.1048 33.0061C11.9359 32.3211 11.5388 31.7141 10.9788 31.285C10.4189 30.8559 9.72955 30.6302 9.02425 30.6452" stroke="black" stroke-width="0.5" stroke-linecap="round"/>
<path d="M32 30.8311C31.2981 30.7606 30.5931 30.9312 30.001 31.3148C29.409 31.6984 28.9653 32.2722 28.7429 32.9417" stroke="black" stroke-width="0.5" stroke-linecap="round"/>
<path d="M29.6652 31.4034C28.8015 29.6838 27.4809 28.2352 25.8484 27.2165C24.2158 26.1978 22.3342 25.6484 20.41 25.6283C18.4858 25.6083 16.5932 26.1185 14.9398 27.103C13.2864 28.0875 11.936 29.5083 11.0367 31.2095C11.822 29.3786 13.1317 27.8211 14.8007 26.7334C16.4698 25.6456 18.4234 25.0762 20.4155 25.0969C22.4077 25.1176 24.3491 25.7276 25.9951 26.8498C27.6411 27.9721 28.9182 29.5565 29.6652 31.4034Z" stroke="black" stroke-width="0.8"/>
<defs>
<radialGradient id="paint0_radial_6_2" cx="0" cy="0" r="1" gradientUnits="userSpaceOnUse" gradientTransform="translate(21 21) scale(20)">
<stop stop-color="#FFFF00"/>
<stop offset="0.8" stop-color="#FFFF00"/>
<stop offset="1" stop-color="#E8E800"/>
</radialGradient>
<radialGradient id="paint1_radial_6_2" cx="0" cy="0" r="1" gradientUnits="userSpaceOnUse" gradientTransform="translate(9 9) scale(20)">
<stop stop-color="white" stop-opacity="0.7"/>
<stop offset="1" stop-color="white" stop-opacity="0"/>
</radialGradient>
</defs>
</svg>
