<svg width="40" height="40" viewBox="0 0 40 40" fill="none" xmlns="http://www.w3.org/2000/svg"><path d="M0 20C0 8.95431 8.95431 0 20 0C31.0457 0 40 8.95431 40 20C40 31.0457 31.0457 40 20 40C8.95431 40 0 31.0457 0 20Z" fill="#F6F6F7"></path><path fill-rule="evenodd" clip-rule="evenodd" d="M19.7074 9.13178C19.8526 9.38932 19.8329 9.70809 19.6572 9.94582C18.5988 11.3777 18.0895 13.1419 18.2219 14.9175C18.3543 16.6931 19.1197 18.3623 20.3787 19.6213C21.6378 20.8804 23.3069 21.6457 25.0825 21.7781C26.8582 21.9105 28.6223 21.4012 30.0542 20.3428C30.2919 20.1671 30.6107 20.1474 30.8682 20.2926C31.1258 20.4377 31.274 20.7206 31.2468 21.015C31.0498 23.147 30.2497 25.1787 28.9401 26.8726C27.6304 28.5664 25.8655 29.8522 23.8518 30.5796C21.8381 31.307 19.6589 31.4458 17.5691 30.9798C15.4794 30.5139 13.5655 29.4624 12.0516 27.9484C10.5376 26.4345 9.48615 24.5206 9.02019 22.4309C8.55423 20.3412 8.69305 18.1619 9.42042 16.1482C10.1478 14.1345 11.4336 12.3696 13.1275 11.06C14.8213 9.75034 16.8531 8.95022 18.985 8.75319C19.2794 8.72599 19.5623 8.87424 19.7074 9.13178ZM17.5721 10.5175C16.2967 10.8479 15.0958 11.4342 14.0449 12.2466C12.5765 13.382 11.4618 14.912 10.8312 16.6578C10.2006 18.4036 10.0803 20.2928 10.4842 22.1045C10.8882 23.9161 11.7998 25.5753 13.1122 26.8878C14.4247 28.2003 16.0839 29.1118 17.8956 29.5158C19.7072 29.9197 21.5965 29.7994 23.3422 29.1688C25.088 28.5382 26.618 27.4235 27.7534 25.9551C28.5659 24.9042 29.1521 23.7033 29.4825 22.428C28.0868 23.0939 26.5325 23.3904 24.971 23.2739C22.8371 23.1148 20.8311 22.1951 19.318 20.682C17.805 19.1689 16.8852 17.163 16.7261 15.029C16.6096 13.4675 16.9062 11.9133 17.5721 10.5175Z" fill="black" fill-opacity="0.89"></path></svg>